<mxfile host="65bd71144e">
    <diagram id="X17kAKo-b54dk4Axud7K" name="Page-1">
        <mxGraphModel dx="599" dy="373" grid="1" gridSize="10" guides="1" tooltips="1" connect="1" arrows="1" fold="1" page="1" pageScale="1" pageWidth="827" pageHeight="1169" math="0" shadow="0">
            <root>
                <mxCell id="0"/>
                <mxCell id="1" parent="0"/>
                <mxCell id="3" value="GameHandler" style="rounded=1;whiteSpace=wrap;html=1;" vertex="1" parent="1">
                    <mxGeometry x="230" y="50" width="90" height="30" as="geometry"/>
                </mxCell>
                <mxCell id="4" value="GameField" style="rounded=1;whiteSpace=wrap;html=1;" vertex="1" parent="1">
                    <mxGeometry x="130" y="170" width="90" height="30" as="geometry"/>
                </mxCell>
                <mxCell id="5" value="GameState" style="rounded=1;whiteSpace=wrap;html=1;" vertex="1" parent="1">
                    <mxGeometry x="230" y="110" width="90" height="30" as="geometry"/>
                </mxCell>
                <mxCell id="6" value="MemberPlayers" style="rounded=1;whiteSpace=wrap;html=1;" vertex="1" parent="1">
                    <mxGeometry x="260" y="170" width="100" height="30" as="geometry"/>
                </mxCell>
                <mxCell id="8" value="GameStateHandler/Logger" style="rounded=1;whiteSpace=wrap;html=1;" vertex="1" parent="1">
                    <mxGeometry x="380" y="90" width="160" height="30" as="geometry"/>
                </mxCell>
                <mxCell id="9" value="Stone" style="rounded=1;whiteSpace=wrap;html=1;" vertex="1" parent="1">
                    <mxGeometry x="30" y="230" width="90" height="30" as="geometry"/>
                </mxCell>
                <mxCell id="10" value="CurrentPlayer" style="rounded=1;whiteSpace=wrap;html=1;" vertex="1" parent="1">
                    <mxGeometry x="265" y="230" width="90" height="30" as="geometry"/>
                </mxCell>
            </root>
        </mxGraphModel>
    </diagram>
</mxfile>